<svg xmlns="http://www.w3.org/2000/svg" width="32" height="32" viewBox="0 0 32 32" fill="none" role="img" aria-label="Zensmile Dental Logo">
  <!-- Definitions for gradients -->
  <defs>
    <linearGradient id="primaryGradient" x1="0%" y1="0%" x2="100%" y2="100%">
      <stop offset="0%" stop-color="#14b8a6" /> <!-- teal-500 -->
      <stop offset="100%" stop-color="#0d9488" /> <!-- teal-600 -->
    </linearGradient>
    <linearGradient id="secondaryGradient" x1="0%" y1="0%" x2="100%" y2="100%">
      <stop offset="0%" stop-color="#2dd4bf" /> <!-- teal-400 -->
      <stop offset="100%" stop-color="#14b8a6" /> <!-- teal-500 -->
    </linearGradient>
  </defs>
  
  <!-- Background circle -->
  <circle cx="16" cy="16" r="15" fill="white" stroke="url(#primaryGradient)" stroke-width="2" />
  
  <!-- Stylized tooth shape -->
  <path d="M16 7c-3.5 0-6.5 1.5-6.5 5.5 0 2.5 1 4.5 2 6.5 1 2 2 4 2.5 6 .1.5.5 1 1 1h2c.5 0 .9-.5 1-1 .5-2 1.5-4 2.5-6 1-2 2-4 2-6.5 0-4-3-5.5-6.5-5.5z" fill="url(#primaryGradient)" />
  
  <!-- Smile arc -->
  <path d="M11 17c1 2 3 3 5 3s4-1 5-3" stroke="white" stroke-width="1.5" stroke-linecap="round" fill="none" />
  
  <!-- Zen wave element -->
  <path d="M10 24c2-1 4-1 6 0s4 1 6 0" stroke="url(#secondaryGradient)" stroke-width="1.5" stroke-linecap="round" fill="none" />
</svg>